<svg aria-hidden="true" style="position: absolute; width: 0; height: 0;" version="1.1" xmlns="http://www.w3.org/2000/svg" xmlns:xlink="http://www.w3.org/1999/xlink">
 <defs>
   <symbol id="icon-book" width="100%" height="100%" viewBox="0 0 48 48">
     <title>Book</title>
     <path d="M0 42a4 4 0 0 0 4 4h36a4 4 0 0 0 4-4v-6h1.8c1.22 0 2.2-.98 2.2-2.2V23.2c0-1.22-.98-2.2-2.2-2.2H44v-6a4 4 0 0 0-4-4H7c-1.1 0-2-.9-2-2s.9-2 2-2h29.5a2.5 2.5 0 0 0 0-5H4a4 4 0 0 0-4 4v36zm34-13.5a2.5 2.5 0 0 1 5 0 2.5 2.5 0 0 1-5 0z"/>
   </symbol>

   <symbol id="icon-locationPin" width="100%" height="100%" viewBox="0 0 20 20">
     <title>Location Pin</title>
     <path d="M10 2.01C7.238 2.01 5 4.237 5 7c0 4.773 5 11 5 11s5-6.228 5-11c0-2.76-2.238-4.99-5-4.99zm0 7.75a2.7 2.7 0 1 1 0-5.4 2.7 2.7 0 0 1 0 5.4z"/>
   </symbol>

   <symbol id="icon-mail" width="100%" height="100%" viewBox="0 0 20 20">
     <title>Mail</title>
     <path d="M1.574 5.286l7.5 4.03c.252.135.578.198.906.198.328 0 .654-.064.906-.2l7.5-4.028c.49-.263.95-1.286.054-1.286H1.52c-.896 0-.434 1.023.054 1.286zm17.04 2.203c-.556.288-7.388 3.848-7.728 4.026s-.578.2-.906.2-.566-.022-.906-.2-7.133-3.74-7.688-4.028c-.39-.204-.386.035-.386.22V15c0 .42.566 1 1 1h16c.434 0 1-.58 1-1V7.708c0-.184.004-.423-.387-.22z"/>
   </symbol>

   <symbol class="icon-fullSmile" width="100%" height="100%" viewBox="0 0 956 387">
     <title>Full Smile</title>
     <g id="full-smile">
       <path id="the-cheek" fill-rule="evenodd" clip-rule="evenodd" d="M892.99 185.34C891.637 183.925 891.522 182.545 892.584 178.461C897.526 159.451 920.911 111.292 917.884 85.4635C917.682 83.7419 917.002 81.9648 916.121 80.5697C914.359 78.1341 912.319 76.5053 908.542 75.1683C884.967 66.8243 827.056 75.5978 809.88 76.002C808.331 75.7317 807.261 74.6692 807.077 73.1366C806.894 71.6039 806.972 70.228 808.03 68.9772C810.557 66.2379 814.242 63.1049 817.988 60.6416C838.377 47.6247 872.787 41.5644 901.832 42.0243C924.603 42.025 944.688 43.3646 951.424 50.12C957.031 56.4449 955.884 63.4479 955.937 68.2322C955.82 98.5637 937.937 142.67 922.566 161.61C916.121 170.251 906.811 179.233 900.917 183.389C896.483 186.516 894.588 186.37 892.99 185.34Z" fill="currentColor"/>

       <g id="smile-word">
         <path id="e-letter" d="M877.128 147.423C877.563 148.499 877.692 149.798 877.516 151.32C876.354 159.699 872.675 167.479 866.482 174.661C860.639 181.57 853.637 186.672 845.478 189.969C832.729 195.12 820.032 195.34 807.385 190.629C794.284 185.772 785.192 177.054 780.11 164.475C775.005 151.839 775.489 139.253 781.562 126.715C787.387 114.541 796.674 105.878 809.422 100.727C814.069 98.8502 819.245 97.7145 824.952 97.3202C831.373 96.9008 838.213 97.5977 845.471 99.4109C854.5 101.695 859.942 105.131 861.797 109.721C862.712 111.987 862.306 114.162 860.577 116.245L810.129 176.865C820.005 181.245 830.072 181.364 840.327 177.22C851.263 172.802 858.597 165.423 862.328 155.083C862.71 153.743 863.27 151.704 864.009 148.966C864.749 146.229 866.054 144.482 867.923 143.727C869.623 143.04 871.416 143.074 873.303 143.827C875.166 144.525 876.441 145.723 877.128 147.423ZM844.942 113.762C835.122 109.359 824.999 109.264 814.573 113.476C805.394 117.185 798.607 123.387 794.211 132.084C789.647 141.178 789.196 150.258 792.859 159.324C794.324 162.95 796.343 166.155 798.918 168.938L844.942 113.762Z" fill="currentColor"/>

         <path id="l-letter-3" d="M802.6 214.9C802.6 216.3 802.067 217.833 801 219.5C797.467 224.9 792.2 229.3 785.2 232.7C778.533 235.9 771.8 237.5 765 237.5C752.6 237.5 742 233.1 733.2 224.3C724.4 215.5 720 204.9 720 192.5L720 125.5C720 120.5 722.5 118 727.5 118C732.5 118 735 120.5 735 125.5L735 192.5C735 200.767 737.933 207.833 743.8 213.7C749.667 219.567 756.733 222.5 765 222.5C772.267 222.5 778.733 220 784.4 215C790.133 209.933 793.6 207.4 794.8 207.4C796.8 207.4 798.6 208.167 800.2 209.7C801.8 211.167 802.6 212.9 802.6 214.9Z" fill="currentColor"/>

         <path id="i-letter" d="M698.4 131.4C698.4 134.533 697.267 137.167 695 139.3C692.8 141.433 690.133 142.5 687 142.5C683.867 142.5 681.167 141.433 678.9 139.3C676.7 137.167 675.6 134.533 675.6 131.4C675.6 128.267 676.7 125.6 678.9 123.4C681.167 121.133 683.867 120 687 120C690.133 120 692.8 121.133 695 123.4C697.267 125.6 698.4 128.267 698.4 131.4ZM724.5 262.5C724.5 267.5 722 270 717 270H687C682 270 679.5 267.5 679.5 262.5V180H657C652 180 649.5 177.5 649.5 172.5C649.5 167.5 652 165 657 165H687.1C692.033 165 694.5 167.5 694.5 172.5V255H717C722 255 724.5 257.5 724.5 262.5Z" fill="currentColor"/>

         <path id="m-letter" d="M642 291.5C642 296.5 639.5 299 634.5 299C629.5 299 627 296.5 627 291.5V201C627 196.867 625.533 193.333 622.6 190.4C619.667 187.467 616.133 186 612 186C607.867 186 604.333 187.467 601.4 190.4C598.467 193.333 597 196.867 597 201V301.5C597 306.5 594.5 309 589.5 309C584.5 309 582 306.5 582 301.5V201C582 196.867 580.533 193.333 577.6 190.4C574.667 187.467 571.133 186 567 186C562.867 186 559.333 187.467 556.4 190.4C553.467 193.333 552 196.867 552 201C552 201 552 304 552 309C552 314 549.5 316.5 544.5 316.5C539.5 316.5 537 314 537 309L537 178.5C537 173.5 539.5 171 544.5 171C547.967 171 550.267 172.5 551.4 175.5C556.133 172.5 561.333 171 567 171C576 171 583.5 174.4 589.5 181.2C595.5 174.4 603 171 612 171C620.267 171 627.333 173.933 633.2 179.8C639.067 185.667 642 192.733 642 201V291.5Z" fill="currentColor"/>

         <path id="S-letter" d="M522.5 278C522.5 291.533 516.433 302.633 504.3 311.3C493.367 319.1 480.867 323 466.8 323C457.667 323 448.8 321.2 440.2 317.6C430.8 313.6 423.733 308.133 419 301.2C417.933 299.667 417.4 298.133 417.4 296.6C417.4 294.6 418.167 292.867 419.7 291.4C421.3 289.867 423.133 289.1 425.2 289.1C427.133 289.1 429.067 290.133 431 292.2C431.933 293.4 433.4 295 435.4 297C443.533 304.333 454 308 466.8 308C476.533 308 485.467 305.5 493.6 300.5C502.867 294.7 507.5 287.2 507.5 278C507.5 268.8 502.867 261.3 493.6 255.5C485.533 250.5 476.6 248 466.8 248C455.133 248 444.767 244.733 435.7 238.2C425.7 231 420.7 221.767 420.7 210.5C420.7 199.233 425.7 190 435.7 182.8C444.767 176.267 455.133 173 466.8 173C474.267 173 481.533 174.5 488.6 177.5C496.333 180.767 502.167 185.233 506.1 190.9C507.3 192.433 507.9 193.967 507.9 195.5C507.9 197.5 507.067 199.267 505.4 200.8C503.8 202.267 502 203 500 203C498.133 203 496.167 202 494.1 200C486.3 192 477.2 188 466.8 188C459.4 188 452.6 189.867 446.4 193.6C439.2 197.867 435.633 203.5 435.7 210.5C435.7 217.433 439.267 223.067 446.4 227.4C452.6 231.133 459.4 233 466.8 233C480.867 233 493.367 236.9 504.3 244.7C516.433 253.367 522.5 264.467 522.5 278Z" fill="currentColor"/>
       </g>

       <g id="full-word">
         <path id="l-letter-2" d="M424.6 250.9C424.6 252.3 424.067 253.833 423 255.5C419.467 260.9 414.2 265.3 407.2 268.7C400.533 271.9 393.8 273.5 387 273.5C374.6 273.5 364 269.1 355.2 260.3C346.4 251.5 342 240.9 342 228.5V171C342 166 344.5 164 349.5 164C354.5 164 357 166 357 171V228.5C357 236.767 359.933 243.833 365.8 249.7C371.667 255.567 378.733 258.5 387 258.5C394.267 258.5 400.733 256 406.4 251C412.133 245.933 415.6 243.4 416.8 243.4C418.8 243.4 420.6 244.167 422.2 245.7C423.8 247.167 424.6 248.9 424.6 250.9Z" fill="currentColor"/>

         <path id="l-letter" d="M372.6 287.9C372.6 289.3 372.067 290.833 371 292.5C367.467 297.9 362.2 302.3 355.2 305.7C348.533 308.9 341.8 310.5 335 310.5C322.6 310.5 312 306.1 303.2 297.3C294.4 288.5 290 277.9 290 265.5V163.5C290 158.5 292.5 156 297.5 156C302.5 156 305 158.5 305 163.5V265.5C305 273.767 307.933 280.833 313.8 286.7C319.667 292.567 326.733 295.5 335 295.5C342.267 295.5 348.733 293 354.4 288C360.133 282.933 363.6 280.4 364.8 280.4C366.8 280.4 368.6 281.167 370.2 282.7C371.8 284.167 372.6 285.9 372.6 287.9Z" fill="currentColor"/>

         <path id="u-letter" d="M266 225.5C266 238.633 261.367 249.833 252.1 259.1C242.833 268.367 231.633 273 218.5 273C205.367 273 194.167 268.367 184.9 259.1C175.633 249.833 171 238.633 171 225.5V175.5C171 170.5 173.5 168 178.5 168C183.5 168 186 170.5 186 175.5V225.5C186 234.433 189.167 242.1 195.5 248.5C201.9 254.833 209.567 258 218.5 258C227.433 258 235.067 254.833 241.4 248.5C247.8 242.1 251 234.433 251 225.5V156.5C251 151.5 253.5 149 258.5 149C263.5 149 266 151.5 266 156.5V225.5Z" fill="currentColor"/>

         <path id="f-letter" d="M185.1 119.6C185.1 121.6 184.3 123.367 182.7 124.9C181.167 126.367 179.367 127.1 177.3 127.1C175.633 127.033 173.467 125.733 170.8 123.2C167.067 119.6 164.167 117.167 162.1 115.9C157.9 113.3 153.033 112 147.5 112C139.233 112 132.167 114.933 126.3 120.8C120.433 126.667 117.5 133.733 117.5 142H155C160 142 162.5 144.5 162.5 149.5C162.5 154.5 160 157 155 157H117.5V237.5C117.5 242.5 115 245 110 245C105 245 102.5 242.5 102.5 237.5V157H87.5C82.5 157 80 154.5 80 149.5C80 144.5 82.5 142 87.5 142H102.5C102.5 129.6 106.9 119 115.7 110.2C124.5 101.4 135.1 97 147.5 97C154.3 97 161.033 98.6 167.7 101.8C174.7 105.133 179.967 109.533 183.5 115C184.567 116.667 185.1 118.2 185.1 119.6Z" fill="currentColor"/>
       </g>

       <path id="the-other-cheek" fill-rule="evenodd" clip-rule="evenodd" d="M63.0097 185.34C64.3627 183.925 64.4784 182.545 63.4165 178.461C58.4743 159.451 35.0893 111.292 38.1163 85.4635C38.318 83.7419 38.9978 81.9648 39.8794 80.5697C41.6408 78.1341 43.6808 76.5053 47.4585 75.1682C71.0325 66.8243 128.944 75.5978 146.12 76.002C147.669 75.7317 148.739 74.6692 148.923 73.1366C149.106 71.6039 149.028 70.228 147.97 68.9772C145.443 66.2379 141.758 63.1049 138.012 60.6416C117.623 47.6247 83.213 41.5644 54.1682 42.0243C31.3969 42.025 11.312 43.3646 4.57553 50.12C-1.03123 56.4449 0.116156 63.4479 0.0632913 68.2322C0.180177 98.5637 18.0634 142.67 33.4338 161.61C39.8794 170.251 49.189 179.233 55.0829 183.389C59.5166 186.516 61.4119 186.37 63.0097 185.34Z" fill="currentColor"/>
     </g>
   </symbol>
 </defs>
</svg>
